<svg width="200" height="102" viewBox="0 0 200 102" fill="none" xmlns="http://www.w3.org/2000/svg">
<rect y="1" width="200" height="100" rx="30" fill="#FED966"/>
<path d="M30.15 74C28.61 74 27.42 73.6033 26.58 72.81C25.7867 71.97 25.39 70.78 25.39 69.24V29.41C25.39 27.87 25.7867 26.7033 26.58 25.91C27.42 25.07 28.61 24.65 30.15 24.65H55.14C56.3067 24.65 57.1933 24.9533 57.8 25.56C58.4533 26.1667 58.78 27.03 58.78 28.15C58.78 29.3167 58.4533 30.2267 57.8 30.88C57.1933 31.4867 56.3067 31.79 55.14 31.79H34V45.37H53.6C54.8133 45.37 55.7233 45.6733 56.33 46.28C56.9367 46.8867 57.24 47.7733 57.24 48.94C57.24 50.1067 56.9367 50.9933 56.33 51.6C55.7233 52.2067 54.8133 52.51 53.6 52.51H34V66.86H55.14C56.3067 66.86 57.1933 67.1633 57.8 67.77C58.4533 68.3767 58.78 69.2633 58.78 70.43C58.78 71.5967 58.4533 72.4833 57.8 73.09C57.1933 73.6967 56.3067 74 55.14 74H30.15ZM71.3576 74.56C70.0042 74.56 68.9542 74.1867 68.2076 73.44C67.5076 72.6933 67.1576 71.62 67.1576 70.22V28.57C67.1576 27.1233 67.5076 26.0267 68.2076 25.28C68.9542 24.4867 69.9109 24.09 71.0776 24.09C72.1509 24.09 72.9442 24.3 73.4576 24.72C74.0176 25.0933 74.6709 25.7467 75.4176 26.68L102.228 61.47H100.408V28.36C100.408 27.0067 100.758 25.9567 101.458 25.21C102.204 24.4633 103.254 24.09 104.608 24.09C105.961 24.09 106.988 24.4633 107.688 25.21C108.388 25.9567 108.738 27.0067 108.738 28.36V70.36C108.738 71.6667 108.411 72.6933 107.758 73.44C107.104 74.1867 106.218 74.56 105.098 74.56C104.024 74.56 103.161 74.35 102.508 73.93C101.901 73.51 101.224 72.8333 100.478 71.9L73.7376 37.11H75.4876V70.22C75.4876 71.62 75.1376 72.6933 74.4376 73.44C73.7376 74.1867 72.7109 74.56 71.3576 74.56ZM135.901 74.56C134.454 74.56 133.334 74.1633 132.541 73.37C131.794 72.53 131.421 71.3867 131.421 69.94V32.14H117.771C116.558 32.14 115.601 31.8133 114.901 31.16C114.248 30.46 113.921 29.5267 113.921 28.36C113.921 27.1467 114.248 26.2367 114.901 25.63C115.601 24.9767 116.558 24.65 117.771 24.65H154.031C155.244 24.65 156.178 24.9767 156.831 25.63C157.531 26.2367 157.881 27.1467 157.881 28.36C157.881 29.5267 157.531 30.46 156.831 31.16C156.178 31.8133 155.244 32.14 154.031 32.14H140.381V69.94C140.381 71.3867 140.008 72.53 139.261 73.37C138.514 74.1633 137.394 74.56 135.901 74.56ZM156.794 74.49C155.488 74.5367 154.461 74.1867 153.714 73.44C152.968 72.6933 152.594 71.7367 152.594 70.57C152.594 69.6833 152.874 68.9133 153.434 68.26C153.948 67.56 154.718 67.1867 155.744 67.14L157.844 67C159.898 66.86 161.438 66.23 162.464 65.11C163.538 63.9433 164.074 62.2867 164.074 60.14V28.64C164.074 27.1467 164.448 26.0267 165.194 25.28C165.988 24.4867 167.108 24.09 168.554 24.09C170.001 24.09 171.098 24.4867 171.844 25.28C172.638 26.0267 173.034 27.1467 173.034 28.64V60.07C173.034 63.01 172.498 65.5067 171.424 67.56C170.398 69.6133 168.858 71.2233 166.804 72.39C164.751 73.51 162.208 74.1633 159.174 74.35L156.794 74.49Z" fill="#BE9200"/>
</svg>
