<svg width="200" height="102" viewBox="0 0 200 102" fill="none" xmlns="http://www.w3.org/2000/svg">
<rect y="1" width="200" height="100" rx="30" fill="#FED966"/>
<path d="M34.87 74.56C33.4233 74.56 32.3033 74.1633 31.51 73.37C30.7633 72.53 30.39 71.3867 30.39 69.94V28.71C30.39 27.2167 30.7633 26.0733 31.51 25.28C32.3033 24.4867 33.4233 24.09 34.87 24.09C36.3167 24.09 37.4133 24.4867 38.16 25.28C38.9533 26.0733 39.35 27.2167 39.35 28.71V69.94C39.35 71.3867 38.9767 72.53 38.23 73.37C37.4833 74.1633 36.3633 74.56 34.87 74.56ZM67.1559 74.7C65.1025 74.7 63.0492 74.5367 60.9959 74.21C58.9425 73.93 57.0059 73.4867 55.1859 72.88C53.3659 72.2267 51.7325 71.4333 50.2859 70.5C49.4459 69.94 48.8625 69.2633 48.5359 68.47C48.2092 67.6767 48.0925 66.9067 48.1859 66.16C48.3259 65.3667 48.6292 64.69 49.0959 64.13C49.6092 63.5233 50.2392 63.15 50.9859 63.01C51.7325 62.87 52.5492 63.08 53.4359 63.64C55.4892 64.8533 57.6592 65.74 59.9459 66.3C62.2325 66.86 64.6359 67.14 67.1559 67.14C70.8425 67.14 73.5259 66.5333 75.2059 65.32C76.8859 64.06 77.7259 62.45 77.7259 60.49C77.7259 58.8567 77.1192 57.5733 75.9059 56.64C74.7392 55.7067 72.7092 54.9367 69.8159 54.33L62.1159 52.72C57.6825 51.7867 54.3692 50.2233 52.1759 48.03C50.0292 45.79 48.9559 42.85 48.9559 39.21C48.9559 36.9233 49.4225 34.8467 50.3559 32.98C51.2892 31.1133 52.5959 29.5033 54.2759 28.15C56.0025 26.7967 58.0325 25.77 60.3659 25.07C62.7459 24.3233 65.3592 23.95 68.2059 23.95C71.0059 23.95 73.6659 24.3 76.1859 25C78.7059 25.7 80.9692 26.7267 82.9759 28.08C83.7225 28.5933 84.2125 29.2233 84.4459 29.97C84.7259 30.7167 84.7959 31.4633 84.6559 32.21C84.5159 32.91 84.1892 33.5167 83.6759 34.03C83.1625 34.5433 82.5092 34.8467 81.7159 34.94C80.9692 35.0333 80.1059 34.8 79.1259 34.24C77.3992 33.26 75.6492 32.56 73.8759 32.14C72.1025 31.72 70.1892 31.51 68.1359 31.51C65.9892 31.51 64.1459 31.8133 62.6059 32.42C61.0659 33.0267 59.8759 33.89 59.0359 35.01C58.2425 36.0833 57.8459 37.3667 57.8459 38.86C57.8459 40.54 58.4059 41.8933 59.5259 42.92C60.6459 43.9 62.5592 44.67 65.2659 45.23L72.8959 46.84C77.5159 47.82 80.9459 49.36 83.1859 51.46C85.4725 53.56 86.6159 56.36 86.6159 59.86C86.6159 62.1 86.1492 64.13 85.2159 65.95C84.3292 67.77 83.0225 69.3333 81.2959 70.64C79.6159 71.9467 77.5859 72.95 75.2059 73.65C72.8259 74.35 70.1425 74.7 67.1559 74.7ZM109.661 74.56C108.214 74.56 107.094 74.1633 106.301 73.37C105.554 72.53 105.181 71.3867 105.181 69.94V32.14H91.5306C90.3173 32.14 89.3606 31.8133 88.6606 31.16C88.0073 30.46 87.6806 29.5267 87.6806 28.36C87.6806 27.1467 88.0073 26.2367 88.6606 25.63C89.3606 24.9767 90.3173 24.65 91.5306 24.65H127.791C129.004 24.65 129.937 24.9767 130.591 25.63C131.291 26.2367 131.641 27.1467 131.641 28.36C131.641 29.5267 131.291 30.46 130.591 31.16C129.937 31.8133 129.004 32.14 127.791 32.14H114.141V69.94C114.141 71.3867 113.767 72.53 113.021 73.37C112.274 74.1633 111.154 74.56 109.661 74.56ZM141.237 74.56C139.791 74.56 138.671 74.1633 137.877 73.37C137.131 72.53 136.757 71.3867 136.757 69.94V29.2C136.757 27.7067 137.154 26.5867 137.947 25.84C138.741 25.0467 139.861 24.65 141.307 24.65H158.177C163.591 24.65 167.767 26.0033 170.707 28.71C173.647 31.4167 175.117 35.1967 175.117 40.05C175.117 44.9033 173.647 48.7067 170.707 51.46C167.767 54.1667 163.591 55.52 158.177 55.52H145.717V69.94C145.717 71.3867 145.344 72.53 144.597 73.37C143.851 74.1633 142.731 74.56 141.237 74.56ZM145.717 48.45H156.777C159.951 48.45 162.354 47.75 163.987 46.35C165.621 44.9033 166.437 42.8033 166.437 40.05C166.437 37.2967 165.621 35.22 163.987 33.82C162.354 32.42 159.951 31.72 156.777 31.72H145.717V48.45Z" fill="#BE9200"/>
</svg>
