<svg width="200" height="102" viewBox="0 0 200 102" fill="none" xmlns="http://www.w3.org/2000/svg">
<rect y="1" width="200" height="100" rx="30" fill="#FED966"/>
<path d="M42.87 74.56C41.4233 74.56 40.3033 74.1633 39.51 73.37C38.7633 72.53 38.39 71.3867 38.39 69.94V28.71C38.39 27.2167 38.7633 26.0733 39.51 25.28C40.3033 24.4867 41.4233 24.09 42.87 24.09C44.3167 24.09 45.4133 24.4867 46.16 25.28C46.9533 26.0733 47.35 27.2167 47.35 28.71V69.94C47.35 71.3867 46.9767 72.53 46.23 73.37C45.4833 74.1633 44.3633 74.56 42.87 74.56ZM62.3459 74.56C60.9925 74.56 59.9425 74.1867 59.1959 73.44C58.4959 72.6933 58.1459 71.62 58.1459 70.22V28.57C58.1459 27.1233 58.4959 26.0267 59.1959 25.28C59.9425 24.4867 60.8992 24.09 62.0659 24.09C63.1392 24.09 63.9325 24.3 64.4459 24.72C65.0059 25.0933 65.6592 25.7467 66.4059 26.68L93.2159 61.47H91.3959V28.36C91.3959 27.0067 91.7459 25.9567 92.4459 25.21C93.1925 24.4633 94.2425 24.09 95.5959 24.09C96.9492 24.09 97.9759 24.4633 98.6759 25.21C99.3759 25.9567 99.7259 27.0067 99.7259 28.36V70.36C99.7259 71.6667 99.3992 72.6933 98.7459 73.44C98.0925 74.1867 97.2059 74.56 96.0859 74.56C95.0125 74.56 94.1492 74.35 93.4959 73.93C92.8892 73.51 92.2125 72.8333 91.4659 71.9L64.7259 37.11H66.4759V70.22C66.4759 71.62 66.1259 72.6933 65.4259 73.44C64.7259 74.1867 63.6992 74.56 62.3459 74.56ZM115.129 74.56C113.682 74.56 112.539 74.1633 111.699 73.37C110.906 72.53 110.509 71.34 110.509 69.8V29.41C110.509 27.87 110.906 26.7033 111.699 25.91C112.539 25.07 113.729 24.65 115.269 24.65H139.699C140.912 24.65 141.822 24.9533 142.429 25.56C143.036 26.1667 143.339 27.03 143.339 28.15C143.339 29.3167 143.036 30.2267 142.429 30.88C141.822 31.4867 140.912 31.79 139.699 31.79H119.469V45.72H138.229C139.396 45.72 140.282 46.0233 140.889 46.63C141.542 47.2367 141.869 48.1 141.869 49.22C141.869 50.3867 141.542 51.2967 140.889 51.95C140.282 52.5567 139.396 52.86 138.229 52.86H119.469V69.8C119.469 72.9733 118.022 74.56 115.129 74.56ZM143.954 74.49C142.648 74.5367 141.621 74.1867 140.874 73.44C140.128 72.6933 139.754 71.7367 139.754 70.57C139.754 69.6833 140.034 68.9133 140.594 68.26C141.108 67.56 141.878 67.1867 142.904 67.14L145.004 67C147.058 66.86 148.598 66.23 149.624 65.11C150.698 63.9433 151.234 62.2867 151.234 60.14V28.64C151.234 27.1467 151.608 26.0267 152.354 25.28C153.148 24.4867 154.268 24.09 155.714 24.09C157.161 24.09 158.258 24.4867 159.004 25.28C159.798 26.0267 160.194 27.1467 160.194 28.64V60.07C160.194 63.01 159.658 65.5067 158.584 67.56C157.558 69.6133 156.018 71.2233 153.964 72.39C151.911 73.51 149.368 74.1633 146.334 74.35L143.954 74.49Z" fill="#BE9200"/>
</svg>
