<svg width="200" height="102" viewBox="0 0 200 102" fill="none" xmlns="http://www.w3.org/2000/svg">
<rect y="1" width="200" height="100" rx="30" fill="#FED966"/>
<path d="M42.87 74.56C41.4233 74.56 40.3033 74.1633 39.51 73.37C38.7633 72.53 38.39 71.3867 38.39 69.94V28.71C38.39 27.2167 38.7633 26.0733 39.51 25.28C40.3033 24.4867 41.4233 24.09 42.87 24.09C44.3167 24.09 45.4133 24.4867 46.16 25.28C46.9533 26.0733 47.35 27.2167 47.35 28.71V69.94C47.35 71.3867 46.9767 72.53 46.23 73.37C45.4833 74.1633 44.3633 74.56 42.87 74.56ZM62.3459 74.56C60.9925 74.56 59.9425 74.1867 59.1959 73.44C58.4959 72.6933 58.1459 71.62 58.1459 70.22V28.57C58.1459 27.1233 58.4959 26.0267 59.1959 25.28C59.9425 24.4867 60.8992 24.09 62.0659 24.09C63.1392 24.09 63.9325 24.3 64.4459 24.72C65.0059 25.0933 65.6592 25.7467 66.4059 26.68L93.2159 61.47H91.3959V28.36C91.3959 27.0067 91.7459 25.9567 92.4459 25.21C93.1925 24.4633 94.2425 24.09 95.5959 24.09C96.9492 24.09 97.9759 24.4633 98.6759 25.21C99.3759 25.9567 99.7259 27.0067 99.7259 28.36V70.36C99.7259 71.6667 99.3992 72.6933 98.7459 73.44C98.0925 74.1867 97.2059 74.56 96.0859 74.56C95.0125 74.56 94.1492 74.35 93.4959 73.93C92.8892 73.51 92.2125 72.8333 91.4659 71.9L64.7259 37.11H66.4759V70.22C66.4759 71.62 66.1259 72.6933 65.4259 73.44C64.7259 74.1867 63.6992 74.56 62.3459 74.56ZM126.889 74.56C125.442 74.56 124.322 74.1633 123.529 73.37C122.782 72.53 122.409 71.3867 122.409 69.94V32.14H108.759C107.546 32.14 106.589 31.8133 105.889 31.16C105.236 30.46 104.909 29.5267 104.909 28.36C104.909 27.1467 105.236 26.2367 105.889 25.63C106.589 24.9767 107.546 24.65 108.759 24.65H145.019C146.232 24.65 147.166 24.9767 147.819 25.63C148.519 26.2367 148.869 27.1467 148.869 28.36C148.869 29.5267 148.519 30.46 147.819 31.16C147.166 31.8133 146.232 32.14 145.019 32.14H131.369V69.94C131.369 71.3867 130.996 72.53 130.249 73.37C129.502 74.1633 128.382 74.56 126.889 74.56ZM147.783 74.49C146.476 74.5367 145.449 74.1867 144.703 73.44C143.956 72.6933 143.582 71.7367 143.582 70.57C143.582 69.6833 143.862 68.9133 144.422 68.26C144.936 67.56 145.706 67.1867 146.733 67.14L148.833 67C150.886 66.86 152.426 66.23 153.453 65.11C154.526 63.9433 155.063 62.2867 155.063 60.14V28.64C155.063 27.1467 155.436 26.0267 156.183 25.28C156.976 24.4867 158.096 24.09 159.543 24.09C160.989 24.09 162.086 24.4867 162.833 25.28C163.626 26.0267 164.023 27.1467 164.023 28.64V60.07C164.023 63.01 163.486 65.5067 162.413 67.56C161.386 69.6133 159.846 71.2233 157.793 72.39C155.739 73.51 153.196 74.1633 150.163 74.35L147.783 74.49Z" fill="#BE9200"/>
</svg>
