<svg width="200" height="102" viewBox="0 0 200 102" fill="none" xmlns="http://www.w3.org/2000/svg">
<rect y="1" width="200" height="100" rx="30" fill="#FED966"/>
<path d="M32.15 74C30.61 74 29.42 73.6033 28.58 72.81C27.7867 71.97 27.39 70.78 27.39 69.24V29.41C27.39 27.87 27.7867 26.7033 28.58 25.91C29.42 25.07 30.61 24.65 32.15 24.65H57.14C58.3067 24.65 59.1933 24.9533 59.8 25.56C60.4533 26.1667 60.78 27.03 60.78 28.15C60.78 29.3167 60.4533 30.2267 59.8 30.88C59.1933 31.4867 58.3067 31.79 57.14 31.79H36V45.37H55.6C56.8133 45.37 57.7233 45.6733 58.33 46.28C58.9367 46.8867 59.24 47.7733 59.24 48.94C59.24 50.1067 58.9367 50.9933 58.33 51.6C57.7233 52.2067 56.8133 52.51 55.6 52.51H36V66.86H57.14C58.3067 66.86 59.1933 67.1633 59.8 67.77C60.4533 68.3767 60.78 69.2633 60.78 70.43C60.78 71.5967 60.4533 72.4833 59.8 73.09C59.1933 73.6967 58.3067 74 57.14 74H32.15ZM73.3576 74.56C72.0042 74.56 70.9542 74.1867 70.2076 73.44C69.5076 72.6933 69.1576 71.62 69.1576 70.22V28.57C69.1576 27.1233 69.5076 26.0267 70.2076 25.28C70.9542 24.4867 71.9109 24.09 73.0776 24.09C74.1509 24.09 74.9442 24.3 75.4576 24.72C76.0176 25.0933 76.6709 25.7467 77.4176 26.68L104.228 61.47H102.408V28.36C102.408 27.0067 102.758 25.9567 103.458 25.21C104.204 24.4633 105.254 24.09 106.608 24.09C107.961 24.09 108.988 24.4633 109.688 25.21C110.388 25.9567 110.738 27.0067 110.738 28.36V70.36C110.738 71.6667 110.411 72.6933 109.758 73.44C109.104 74.1867 108.218 74.56 107.098 74.56C106.024 74.56 105.161 74.35 104.508 73.93C103.901 73.51 103.224 72.8333 102.478 71.9L75.7376 37.11H77.4876V70.22C77.4876 71.62 77.1376 72.6933 76.4376 73.44C75.7376 74.1867 74.7109 74.56 73.3576 74.56ZM126.141 74.56C124.694 74.56 123.551 74.1633 122.711 73.37C121.918 72.53 121.521 71.34 121.521 69.8V29.41C121.521 27.87 121.918 26.7033 122.711 25.91C123.551 25.07 124.741 24.65 126.281 24.65H150.711C151.924 24.65 152.834 24.9533 153.441 25.56C154.048 26.1667 154.351 27.03 154.351 28.15C154.351 29.3167 154.048 30.2267 153.441 30.88C152.834 31.4867 151.924 31.79 150.711 31.79H130.481V45.72H149.241C150.408 45.72 151.294 46.0233 151.901 46.63C152.554 47.2367 152.881 48.1 152.881 49.22C152.881 50.3867 152.554 51.2967 151.901 51.95C151.294 52.5567 150.408 52.86 149.241 52.86H130.481V69.8C130.481 72.9733 129.034 74.56 126.141 74.56ZM154.966 74.49C153.659 74.5367 152.633 74.1867 151.886 73.44C151.139 72.6933 150.766 71.7367 150.766 70.57C150.766 69.6833 151.046 68.9133 151.606 68.26C152.119 67.56 152.889 67.1867 153.916 67.14L156.016 67C158.069 66.86 159.609 66.23 160.636 65.11C161.709 63.9433 162.246 62.2867 162.246 60.14V28.64C162.246 27.1467 162.619 26.0267 163.366 25.28C164.159 24.4867 165.279 24.09 166.726 24.09C168.173 24.09 169.269 24.4867 170.016 25.28C170.809 26.0267 171.206 27.1467 171.206 28.64V60.07C171.206 63.01 170.669 65.5067 169.596 67.56C168.569 69.6133 167.029 71.2233 164.976 72.39C162.923 73.51 160.379 74.1633 157.346 74.35L154.966 74.49Z" fill="#BE9200"/>
</svg>
