<svg width="200" height="102" viewBox="0 0 200 102" fill="none" xmlns="http://www.w3.org/2000/svg">
<rect y="1" width="200" height="100" rx="30" fill="#FED966"/>
<path d="M24.15 74C22.61 74 21.42 73.6033 20.58 72.81C19.7867 71.97 19.39 70.78 19.39 69.24V29.41C19.39 27.87 19.7867 26.7033 20.58 25.91C21.42 25.07 22.61 24.65 24.15 24.65H49.14C50.3067 24.65 51.1933 24.9533 51.8 25.56C52.4533 26.1667 52.78 27.03 52.78 28.15C52.78 29.3167 52.4533 30.2267 51.8 30.88C51.1933 31.4867 50.3067 31.79 49.14 31.79H28V45.37H47.6C48.8133 45.37 49.7233 45.6733 50.33 46.28C50.9367 46.8867 51.24 47.7733 51.24 48.94C51.24 50.1067 50.9367 50.9933 50.33 51.6C49.7233 52.2067 48.8133 52.51 47.6 52.51H28V66.86H49.14C50.3067 66.86 51.1933 67.1633 51.8 67.77C52.4533 68.3767 52.78 69.2633 52.78 70.43C52.78 71.5967 52.4533 72.4833 51.8 73.09C51.1933 73.6967 50.3067 74 49.14 74H24.15ZM77.484 74.7C75.4307 74.7 73.3773 74.5367 71.324 74.21C69.2707 73.93 67.334 73.4867 65.514 72.88C63.694 72.2267 62.0607 71.4333 60.614 70.5C59.774 69.94 59.1907 69.2633 58.864 68.47C58.5373 67.6767 58.4207 66.9067 58.514 66.16C58.654 65.3667 58.9573 64.69 59.424 64.13C59.9373 63.5233 60.5673 63.15 61.314 63.01C62.0607 62.87 62.8773 63.08 63.764 63.64C65.8173 64.8533 67.9873 65.74 70.274 66.3C72.5607 66.86 74.964 67.14 77.484 67.14C81.1707 67.14 83.854 66.5333 85.534 65.32C87.214 64.06 88.054 62.45 88.054 60.49C88.054 58.8567 87.4473 57.5733 86.234 56.64C85.0673 55.7067 83.0373 54.9367 80.144 54.33L72.444 52.72C68.0107 51.7867 64.6973 50.2233 62.504 48.03C60.3573 45.79 59.284 42.85 59.284 39.21C59.284 36.9233 59.7507 34.8467 60.684 32.98C61.6173 31.1133 62.924 29.5033 64.604 28.15C66.3307 26.7967 68.3607 25.77 70.694 25.07C73.074 24.3233 75.6873 23.95 78.534 23.95C81.334 23.95 83.994 24.3 86.514 25C89.034 25.7 91.2973 26.7267 93.304 28.08C94.0507 28.5933 94.5407 29.2233 94.774 29.97C95.054 30.7167 95.124 31.4633 94.984 32.21C94.844 32.91 94.5173 33.5167 94.004 34.03C93.4907 34.5433 92.8373 34.8467 92.044 34.94C91.2973 35.0333 90.434 34.8 89.454 34.24C87.7273 33.26 85.9773 32.56 84.204 32.14C82.4307 31.72 80.5173 31.51 78.464 31.51C76.3173 31.51 74.474 31.8133 72.934 32.42C71.394 33.0267 70.204 33.89 69.364 35.01C68.5707 36.0833 68.174 37.3667 68.174 38.86C68.174 40.54 68.734 41.8933 69.854 42.92C70.974 43.9 72.8873 44.67 75.594 45.23L83.224 46.84C87.844 47.82 91.274 49.36 93.514 51.46C95.8007 53.56 96.944 56.36 96.944 59.86C96.944 62.1 96.4773 64.13 95.544 65.95C94.6573 67.77 93.3507 69.3333 91.624 70.64C89.944 71.9467 87.914 72.95 85.534 73.65C83.154 74.35 80.4707 74.7 77.484 74.7ZM109.254 74.56C107.807 74.56 106.664 74.1633 105.824 73.37C105.031 72.53 104.634 71.34 104.634 69.8V29.41C104.634 27.87 105.031 26.7033 105.824 25.91C106.664 25.07 107.854 24.65 109.394 24.65H133.824C135.037 24.65 135.947 24.9533 136.554 25.56C137.161 26.1667 137.464 27.03 137.464 28.15C137.464 29.3167 137.161 30.2267 136.554 30.88C135.947 31.4867 135.037 31.79 133.824 31.79H113.594V45.72H132.354C133.521 45.72 134.407 46.0233 135.014 46.63C135.667 47.2367 135.994 48.1 135.994 49.22C135.994 50.3867 135.667 51.2967 135.014 51.95C134.407 52.5567 133.521 52.86 132.354 52.86H113.594V69.8C113.594 72.9733 112.147 74.56 109.254 74.56ZM148.421 74.56C146.974 74.56 145.854 74.1633 145.061 73.37C144.314 72.53 143.941 71.3867 143.941 69.94V29.2C143.941 27.7067 144.337 26.5867 145.131 25.84C145.924 25.0467 147.044 24.65 148.491 24.65H165.361C170.774 24.65 174.951 26.0033 177.891 28.71C180.831 31.4167 182.301 35.1967 182.301 40.05C182.301 44.9033 180.831 48.7067 177.891 51.46C174.951 54.1667 170.774 55.52 165.361 55.52H152.901V69.94C152.901 71.3867 152.527 72.53 151.781 73.37C151.034 74.1633 149.914 74.56 148.421 74.56ZM152.901 48.45H163.961C167.134 48.45 169.537 47.75 171.171 46.35C172.804 44.9033 173.621 42.8033 173.621 40.05C173.621 37.2967 172.804 35.22 171.171 33.82C169.537 32.42 167.134 31.72 163.961 31.72H152.901V48.45Z" fill="#BE9200"/>
</svg>
