<svg width="200" height="102" viewBox="0 0 200 102" fill="none" xmlns="http://www.w3.org/2000/svg">
<rect y="1" width="200" height="100" rx="30" fill="white"/>
<path d="M20.15 74C18.61 74 17.42 73.6033 16.58 72.81C15.7867 71.97 15.39 70.78 15.39 69.24V29.41C15.39 27.87 15.7867 26.7033 16.58 25.91C17.42 25.07 18.61 24.65 20.15 24.65H45.14C46.3067 24.65 47.1933 24.9533 47.8 25.56C48.4533 26.1667 48.78 27.03 48.78 28.15C48.78 29.3167 48.4533 30.2267 47.8 30.88C47.1933 31.4867 46.3067 31.79 45.14 31.79H24V45.37H43.6C44.8133 45.37 45.7233 45.6733 46.33 46.28C46.9367 46.8867 47.24 47.7733 47.24 48.94C47.24 50.1067 46.9367 50.9933 46.33 51.6C45.7233 52.2067 44.8133 52.51 43.6 52.51H24V66.86H45.14C46.3067 66.86 47.1933 67.1633 47.8 67.77C48.4533 68.3767 48.78 69.2633 48.78 70.43C48.78 71.5967 48.4533 72.4833 47.8 73.09C47.1933 73.6967 46.3067 74 45.14 74H20.15ZM61.3576 74.56C60.0042 74.56 58.9542 74.1867 58.2076 73.44C57.5076 72.6933 57.1576 71.62 57.1576 70.22V28.57C57.1576 27.1233 57.5076 26.0267 58.2076 25.28C58.9542 24.4867 59.9109 24.09 61.0776 24.09C62.1509 24.09 62.9442 24.3 63.4576 24.72C64.0176 25.0933 64.6709 25.7467 65.4176 26.68L92.2276 61.47H90.4076V28.36C90.4076 27.0067 90.7576 25.9567 91.4576 25.21C92.2042 24.4633 93.2542 24.09 94.6076 24.09C95.9609 24.09 96.9876 24.4633 97.6876 25.21C98.3876 25.9567 98.7376 27.0067 98.7376 28.36V70.36C98.7376 71.6667 98.4109 72.6933 97.7576 73.44C97.1042 74.1867 96.2176 74.56 95.0976 74.56C94.0242 74.56 93.1609 74.35 92.5076 73.93C91.9009 73.51 91.2242 72.8333 90.4776 71.9L63.7376 37.11H65.4876V70.22C65.4876 71.62 65.1376 72.6933 64.4376 73.44C63.7376 74.1867 62.7109 74.56 61.3576 74.56ZM114.141 74.56C112.694 74.56 111.551 74.1633 110.711 73.37C109.918 72.53 109.521 71.34 109.521 69.8V29.41C109.521 27.87 109.918 26.7033 110.711 25.91C111.551 25.07 112.741 24.65 114.281 24.65H138.711C139.924 24.65 140.834 24.9533 141.441 25.56C142.048 26.1667 142.351 27.03 142.351 28.15C142.351 29.3167 142.048 30.2267 141.441 30.88C140.834 31.4867 139.924 31.79 138.711 31.79H118.481V45.72H137.241C138.408 45.72 139.294 46.0233 139.901 46.63C140.554 47.2367 140.881 48.1 140.881 49.22C140.881 50.3867 140.554 51.2967 139.901 51.95C139.294 52.5567 138.408 52.86 137.241 52.86H118.481V69.8C118.481 72.9733 117.034 74.56 114.141 74.56ZM153.308 74.56C151.861 74.56 150.741 74.1633 149.948 73.37C149.201 72.53 148.828 71.3867 148.828 69.94V29.2C148.828 27.7067 149.224 26.5867 150.018 25.84C150.811 25.0467 151.931 24.65 153.378 24.65H170.248C175.661 24.65 179.838 26.0033 182.778 28.71C185.718 31.4167 187.188 35.1967 187.188 40.05C187.188 44.9033 185.718 48.7067 182.778 51.46C179.838 54.1667 175.661 55.52 170.248 55.52H157.788V69.94C157.788 71.3867 157.414 72.53 156.668 73.37C155.921 74.1633 154.801 74.56 153.308 74.56ZM157.788 48.45H168.848C172.021 48.45 174.424 47.75 176.058 46.35C177.691 44.9033 178.508 42.8033 178.508 40.05C178.508 37.2967 177.691 35.22 176.058 33.82C174.424 32.42 172.021 31.72 168.848 31.72H157.788V48.45Z" fill="#BE9200"/>
</svg>
