<svg width="200" height="102" viewBox="0 0 200 102" fill="none" xmlns="http://www.w3.org/2000/svg">
<rect y="1" width="200" height="100" rx="30" fill="white"/>
<path d="M20.15 74C18.61 74 17.42 73.6033 16.58 72.81C15.7867 71.97 15.39 70.78 15.39 69.24V29.41C15.39 27.87 15.7867 26.7033 16.58 25.91C17.42 25.07 18.61 24.65 20.15 24.65H45.14C46.3067 24.65 47.1933 24.9533 47.8 25.56C48.4533 26.1667 48.78 27.03 48.78 28.15C48.78 29.3167 48.4533 30.2267 47.8 30.88C47.1933 31.4867 46.3067 31.79 45.14 31.79H24V45.37H43.6C44.8133 45.37 45.7233 45.6733 46.33 46.28C46.9367 46.8867 47.24 47.7733 47.24 48.94C47.24 50.1067 46.9367 50.9933 46.33 51.6C45.7233 52.2067 44.8133 52.51 43.6 52.51H24V66.86H45.14C46.3067 66.86 47.1933 67.1633 47.8 67.77C48.4533 68.3767 48.78 69.2633 48.78 70.43C48.78 71.5967 48.4533 72.4833 47.8 73.09C47.1933 73.6967 46.3067 74 45.14 74H20.15ZM61.3576 74.56C60.0042 74.56 58.9542 74.1867 58.2076 73.44C57.5076 72.6933 57.1576 71.62 57.1576 70.22V28.57C57.1576 27.1233 57.5076 26.0267 58.2076 25.28C58.9542 24.4867 59.9109 24.09 61.0776 24.09C62.1509 24.09 62.9442 24.3 63.4576 24.72C64.0176 25.0933 64.6709 25.7467 65.4176 26.68L92.2276 61.47H90.4076V28.36C90.4076 27.0067 90.7576 25.9567 91.4576 25.21C92.2042 24.4633 93.2542 24.09 94.6076 24.09C95.9609 24.09 96.9876 24.4633 97.6876 25.21C98.3876 25.9567 98.7376 27.0067 98.7376 28.36V70.36C98.7376 71.6667 98.4109 72.6933 97.7576 73.44C97.1042 74.1867 96.2176 74.56 95.0976 74.56C94.0242 74.56 93.1609 74.35 92.5076 73.93C91.9009 73.51 91.2242 72.8333 90.4776 71.9L63.7376 37.11H65.4876V70.22C65.4876 71.62 65.1376 72.6933 64.4376 73.44C63.7376 74.1867 62.7109 74.56 61.3576 74.56ZM125.901 74.56C124.454 74.56 123.334 74.1633 122.541 73.37C121.794 72.53 121.421 71.3867 121.421 69.94V32.14H107.771C106.558 32.14 105.601 31.8133 104.901 31.16C104.248 30.46 103.921 29.5267 103.921 28.36C103.921 27.1467 104.248 26.2367 104.901 25.63C105.601 24.9767 106.558 24.65 107.771 24.65H144.031C145.244 24.65 146.178 24.9767 146.831 25.63C147.531 26.2367 147.881 27.1467 147.881 28.36C147.881 29.5267 147.531 30.46 146.831 31.16C146.178 31.8133 145.244 32.14 144.031 32.14H130.381V69.94C130.381 71.3867 130.008 72.53 129.261 73.37C128.514 74.1633 127.394 74.56 125.901 74.56ZM157.477 74.56C156.031 74.56 154.911 74.1633 154.117 73.37C153.371 72.53 152.997 71.3867 152.997 69.94V29.2C152.997 27.7067 153.394 26.5867 154.187 25.84C154.981 25.0467 156.101 24.65 157.547 24.65H174.417C179.831 24.65 184.007 26.0033 186.947 28.71C189.887 31.4167 191.357 35.1967 191.357 40.05C191.357 44.9033 189.887 48.7067 186.947 51.46C184.007 54.1667 179.831 55.52 174.417 55.52H161.957V69.94C161.957 71.3867 161.584 72.53 160.837 73.37C160.091 74.1633 158.971 74.56 157.477 74.56ZM161.957 48.45H173.017C176.191 48.45 178.594 47.75 180.227 46.35C181.861 44.9033 182.677 42.8033 182.677 40.05C182.677 37.2967 181.861 35.22 180.227 33.82C178.594 32.42 176.191 31.72 173.017 31.72H161.957V48.45Z" fill="#BE9200"/>
</svg>
