<svg width="200" height="102" viewBox="0 0 200 102" fill="none" xmlns="http://www.w3.org/2000/svg">
<rect y="1" width="200" height="100" rx="30" fill="white"/>
<path d="M37.15 74C35.61 74 34.42 73.6033 33.58 72.81C32.7867 71.97 32.39 70.78 32.39 69.24V29.41C32.39 27.87 32.7867 26.7033 33.58 25.91C34.42 25.07 35.61 24.65 37.15 24.65H62.14C63.3067 24.65 64.1933 24.9533 64.8 25.56C65.4533 26.1667 65.78 27.03 65.78 28.15C65.78 29.3167 65.4533 30.2267 64.8 30.88C64.1933 31.4867 63.3067 31.79 62.14 31.79H41V45.37H60.6C61.8133 45.37 62.7233 45.6733 63.33 46.28C63.9367 46.8867 64.24 47.7733 64.24 48.94C64.24 50.1067 63.9367 50.9933 63.33 51.6C62.7233 52.2067 61.8133 52.51 60.6 52.51H41V66.86H62.14C63.3067 66.86 64.1933 67.1633 64.8 67.77C65.4533 68.3767 65.78 69.2633 65.78 70.43C65.78 71.5967 65.4533 72.4833 64.8 73.09C64.1933 73.6967 63.3067 74 62.14 74H37.15ZM90.484 74.7C88.4307 74.7 86.3773 74.5367 84.324 74.21C82.2707 73.93 80.334 73.4867 78.514 72.88C76.694 72.2267 75.0607 71.4333 73.614 70.5C72.774 69.94 72.1907 69.2633 71.864 68.47C71.5373 67.6767 71.4207 66.9067 71.514 66.16C71.654 65.3667 71.9573 64.69 72.424 64.13C72.9373 63.5233 73.5673 63.15 74.314 63.01C75.0607 62.87 75.8773 63.08 76.764 63.64C78.8173 64.8533 80.9873 65.74 83.274 66.3C85.5607 66.86 87.964 67.14 90.484 67.14C94.1707 67.14 96.854 66.5333 98.534 65.32C100.214 64.06 101.054 62.45 101.054 60.49C101.054 58.8567 100.447 57.5733 99.234 56.64C98.0673 55.7067 96.0373 54.9367 93.144 54.33L85.444 52.72C81.0107 51.7867 77.6973 50.2233 75.504 48.03C73.3573 45.79 72.284 42.85 72.284 39.21C72.284 36.9233 72.7507 34.8467 73.684 32.98C74.6173 31.1133 75.924 29.5033 77.604 28.15C79.3307 26.7967 81.3607 25.77 83.694 25.07C86.074 24.3233 88.6873 23.95 91.534 23.95C94.334 23.95 96.994 24.3 99.514 25C102.034 25.7 104.297 26.7267 106.304 28.08C107.051 28.5933 107.541 29.2233 107.774 29.97C108.054 30.7167 108.124 31.4633 107.984 32.21C107.844 32.91 107.517 33.5167 107.004 34.03C106.491 34.5433 105.837 34.8467 105.044 34.94C104.297 35.0333 103.434 34.8 102.454 34.24C100.727 33.26 98.9773 32.56 97.204 32.14C95.4307 31.72 93.5173 31.51 91.464 31.51C89.3173 31.51 87.474 31.8133 85.934 32.42C84.394 33.0267 83.204 33.89 82.364 35.01C81.5707 36.0833 81.174 37.3667 81.174 38.86C81.174 40.54 81.734 41.8933 82.854 42.92C83.974 43.9 85.8873 44.67 88.594 45.23L96.224 46.84C100.844 47.82 104.274 49.36 106.514 51.46C108.801 53.56 109.944 56.36 109.944 59.86C109.944 62.1 109.477 64.13 108.544 65.95C107.657 67.77 106.351 69.3333 104.624 70.64C102.944 71.9467 100.914 72.95 98.534 73.65C96.154 74.35 93.4707 74.7 90.484 74.7ZM132.989 74.56C131.542 74.56 130.422 74.1633 129.629 73.37C128.882 72.53 128.509 71.3867 128.509 69.94V32.14H114.859C113.645 32.14 112.689 31.8133 111.989 31.16C111.335 30.46 111.009 29.5267 111.009 28.36C111.009 27.1467 111.335 26.2367 111.989 25.63C112.689 24.9767 113.645 24.65 114.859 24.65H151.119C152.332 24.65 153.265 24.9767 153.919 25.63C154.619 26.2367 154.969 27.1467 154.969 28.36C154.969 29.5267 154.619 30.46 153.919 31.16C153.265 31.8133 152.332 32.14 151.119 32.14H137.469V69.94C137.469 71.3867 137.095 72.53 136.349 73.37C135.602 74.1633 134.482 74.56 132.989 74.56ZM153.882 74.49C152.575 74.5367 151.549 74.1867 150.802 73.44C150.055 72.6933 149.682 71.7367 149.682 70.57C149.682 69.6833 149.962 68.9133 150.522 68.26C151.035 67.56 151.805 67.1867 152.832 67.14L154.932 67C156.985 66.86 158.525 66.23 159.552 65.11C160.625 63.9433 161.162 62.2867 161.162 60.14V28.64C161.162 27.1467 161.535 26.0267 162.282 25.28C163.075 24.4867 164.195 24.09 165.642 24.09C167.089 24.09 168.185 24.4867 168.932 25.28C169.725 26.0267 170.122 27.1467 170.122 28.64V60.07C170.122 63.01 169.585 65.5067 168.512 67.56C167.485 69.6133 165.945 71.2233 163.892 72.39C161.839 73.51 159.295 74.1633 156.262 74.35L153.882 74.49Z" fill="#BE9200"/>
</svg>
