<svg width="200" height="102" viewBox="0 0 200 102" fill="none" xmlns="http://www.w3.org/2000/svg">
<rect y="1" width="200" height="100" rx="30" fill="white"/>
<path d="M30.87 74.56C29.4233 74.56 28.3033 74.1633 27.51 73.37C26.7633 72.53 26.39 71.3867 26.39 69.94V28.71C26.39 27.2167 26.7633 26.0733 27.51 25.28C28.3033 24.4867 29.4233 24.09 30.87 24.09C32.3167 24.09 33.4133 24.4867 34.16 25.28C34.9533 26.0733 35.35 27.2167 35.35 28.71V69.94C35.35 71.3867 34.9767 72.53 34.23 73.37C33.4833 74.1633 32.3633 74.56 30.87 74.56ZM50.3459 74.56C48.9925 74.56 47.9425 74.1867 47.1959 73.44C46.4959 72.6933 46.1459 71.62 46.1459 70.22V28.57C46.1459 27.1233 46.4959 26.0267 47.1959 25.28C47.9425 24.4867 48.8992 24.09 50.0659 24.09C51.1392 24.09 51.9325 24.3 52.4459 24.72C53.0059 25.0933 53.6592 25.7467 54.4059 26.68L81.2159 61.47H79.3959V28.36C79.3959 27.0067 79.7459 25.9567 80.4459 25.21C81.1925 24.4633 82.2425 24.09 83.5959 24.09C84.9492 24.09 85.9759 24.4633 86.6759 25.21C87.3759 25.9567 87.7259 27.0067 87.7259 28.36V70.36C87.7259 71.6667 87.3992 72.6933 86.7459 73.44C86.0925 74.1867 85.2059 74.56 84.0859 74.56C83.0125 74.56 82.1492 74.35 81.4959 73.93C80.8892 73.51 80.2125 72.8333 79.4659 71.9L52.7259 37.11H54.4759V70.22C54.4759 71.62 54.1259 72.6933 53.4259 73.44C52.7259 74.1867 51.6992 74.56 50.3459 74.56ZM114.889 74.56C113.442 74.56 112.322 74.1633 111.529 73.37C110.782 72.53 110.409 71.3867 110.409 69.94V32.14H96.7591C95.5458 32.14 94.5891 31.8133 93.8891 31.16C93.2358 30.46 92.9091 29.5267 92.9091 28.36C92.9091 27.1467 93.2358 26.2367 93.8891 25.63C94.5891 24.9767 95.5458 24.65 96.7591 24.65H133.019C134.232 24.65 135.166 24.9767 135.819 25.63C136.519 26.2367 136.869 27.1467 136.869 28.36C136.869 29.5267 136.519 30.46 135.819 31.16C135.166 31.8133 134.232 32.14 133.019 32.14H119.369V69.94C119.369 71.3867 118.996 72.53 118.249 73.37C117.502 74.1633 116.382 74.56 114.889 74.56ZM146.466 74.56C145.019 74.56 143.899 74.1633 143.106 73.37C142.359 72.53 141.986 71.3867 141.986 69.94V29.2C141.986 27.7067 142.382 26.5867 143.176 25.84C143.969 25.0467 145.089 24.65 146.536 24.65H163.406C168.819 24.65 172.996 26.0033 175.936 28.71C178.876 31.4167 180.346 35.1967 180.346 40.05C180.346 44.9033 178.876 48.7067 175.936 51.46C172.996 54.1667 168.819 55.52 163.406 55.52H150.946V69.94C150.946 71.3867 150.572 72.53 149.826 73.37C149.079 74.1633 147.959 74.56 146.466 74.56ZM150.946 48.45H162.006C165.179 48.45 167.582 47.75 169.216 46.35C170.849 44.9033 171.666 42.8033 171.666 40.05C171.666 37.2967 170.849 35.22 169.216 33.82C167.582 32.42 165.179 31.72 162.006 31.72H150.946V48.45Z" fill="#BE9200"/>
</svg>
