<svg width="200" height="102" viewBox="0 0 200 102" fill="none" xmlns="http://www.w3.org/2000/svg">
<rect y="1" width="200" height="100" rx="30" fill="white"/>
<path d="M37.15 74C35.61 74 34.42 73.6033 33.58 72.81C32.7867 71.97 32.39 70.78 32.39 69.24V29.41C32.39 27.87 32.7867 26.7033 33.58 25.91C34.42 25.07 35.61 24.65 37.15 24.65H62.14C63.3067 24.65 64.1933 24.9533 64.8 25.56C65.4533 26.1667 65.78 27.03 65.78 28.15C65.78 29.3167 65.4533 30.2267 64.8 30.88C64.1933 31.4867 63.3067 31.79 62.14 31.79H41V45.37H60.6C61.8133 45.37 62.7233 45.6733 63.33 46.28C63.9367 46.8867 64.24 47.7733 64.24 48.94C64.24 50.1067 63.9367 50.9933 63.33 51.6C62.7233 52.2067 61.8133 52.51 60.6 52.51H41V66.86H62.14C63.3067 66.86 64.1933 67.1633 64.8 67.77C65.4533 68.3767 65.78 69.2633 65.78 70.43C65.78 71.5967 65.4533 72.4833 64.8 73.09C64.1933 73.6967 63.3067 74 62.14 74H37.15ZM90.484 74.7C88.4307 74.7 86.3773 74.5367 84.324 74.21C82.2707 73.93 80.334 73.4867 78.514 72.88C76.694 72.2267 75.0607 71.4333 73.614 70.5C72.774 69.94 72.1907 69.2633 71.864 68.47C71.5373 67.6767 71.4207 66.9067 71.514 66.16C71.654 65.3667 71.9573 64.69 72.424 64.13C72.9373 63.5233 73.5673 63.15 74.314 63.01C75.0607 62.87 75.8773 63.08 76.764 63.64C78.8173 64.8533 80.9873 65.74 83.274 66.3C85.5607 66.86 87.964 67.14 90.484 67.14C94.1707 67.14 96.854 66.5333 98.534 65.32C100.214 64.06 101.054 62.45 101.054 60.49C101.054 58.8567 100.447 57.5733 99.234 56.64C98.0673 55.7067 96.0373 54.9367 93.144 54.33L85.444 52.72C81.0107 51.7867 77.6973 50.2233 75.504 48.03C73.3573 45.79 72.284 42.85 72.284 39.21C72.284 36.9233 72.7507 34.8467 73.684 32.98C74.6173 31.1133 75.924 29.5033 77.604 28.15C79.3307 26.7967 81.3607 25.77 83.694 25.07C86.074 24.3233 88.6873 23.95 91.534 23.95C94.334 23.95 96.994 24.3 99.514 25C102.034 25.7 104.297 26.7267 106.304 28.08C107.051 28.5933 107.541 29.2233 107.774 29.97C108.054 30.7167 108.124 31.4633 107.984 32.21C107.844 32.91 107.517 33.5167 107.004 34.03C106.491 34.5433 105.837 34.8467 105.044 34.94C104.297 35.0333 103.434 34.8 102.454 34.24C100.727 33.26 98.9773 32.56 97.204 32.14C95.4307 31.72 93.5173 31.51 91.464 31.51C89.3173 31.51 87.474 31.8133 85.934 32.42C84.394 33.0267 83.204 33.89 82.364 35.01C81.5707 36.0833 81.174 37.3667 81.174 38.86C81.174 40.54 81.734 41.8933 82.854 42.92C83.974 43.9 85.8873 44.67 88.594 45.23L96.224 46.84C100.844 47.82 104.274 49.36 106.514 51.46C108.801 53.56 109.944 56.36 109.944 59.86C109.944 62.1 109.477 64.13 108.544 65.95C107.657 67.77 106.351 69.3333 104.624 70.64C102.944 71.9467 100.914 72.95 98.534 73.65C96.154 74.35 93.4707 74.7 90.484 74.7ZM122.254 74.56C120.807 74.56 119.664 74.1633 118.824 73.37C118.031 72.53 117.634 71.34 117.634 69.8V29.41C117.634 27.87 118.031 26.7033 118.824 25.91C119.664 25.07 120.854 24.65 122.394 24.65H146.824C148.037 24.65 148.947 24.9533 149.554 25.56C150.161 26.1667 150.464 27.03 150.464 28.15C150.464 29.3167 150.161 30.2267 149.554 30.88C148.947 31.4867 148.037 31.79 146.824 31.79H126.594V45.72H145.354C146.521 45.72 147.407 46.0233 148.014 46.63C148.667 47.2367 148.994 48.1 148.994 49.22C148.994 50.3867 148.667 51.2967 148.014 51.95C147.407 52.5567 146.521 52.86 145.354 52.86H126.594V69.8C126.594 72.9733 125.147 74.56 122.254 74.56ZM151.079 74.49C149.773 74.5367 148.746 74.1867 147.999 73.44C147.253 72.6933 146.879 71.7367 146.879 70.57C146.879 69.6833 147.159 68.9133 147.719 68.26C148.233 67.56 149.003 67.1867 150.029 67.14L152.129 67C154.183 66.86 155.723 66.23 156.749 65.11C157.823 63.9433 158.359 62.2867 158.359 60.14V28.64C158.359 27.1467 158.733 26.0267 159.479 25.28C160.273 24.4867 161.393 24.09 162.839 24.09C164.286 24.09 165.383 24.4867 166.129 25.28C166.923 26.0267 167.319 27.1467 167.319 28.64V60.07C167.319 63.01 166.783 65.5067 165.709 67.56C164.683 69.6133 163.143 71.2233 161.089 72.39C159.036 73.51 156.493 74.1633 153.459 74.35L151.079 74.49Z" fill="#BE9200"/>
</svg>
