<svg width="200" height="102" viewBox="0 0 200 102" fill="none" xmlns="http://www.w3.org/2000/svg">
<rect y="1" width="200" height="100" rx="30" fill="white"/>
<path d="M30.87 74.56C29.4233 74.56 28.3033 74.1633 27.51 73.37C26.7633 72.53 26.39 71.3867 26.39 69.94V28.71C26.39 27.2167 26.7633 26.0733 27.51 25.28C28.3033 24.4867 29.4233 24.09 30.87 24.09C32.3167 24.09 33.4133 24.4867 34.16 25.28C34.9533 26.0733 35.35 27.2167 35.35 28.71V69.94C35.35 71.3867 34.9767 72.53 34.23 73.37C33.4833 74.1633 32.3633 74.56 30.87 74.56ZM50.3459 74.56C48.9925 74.56 47.9425 74.1867 47.1959 73.44C46.4959 72.6933 46.1459 71.62 46.1459 70.22V28.57C46.1459 27.1233 46.4959 26.0267 47.1959 25.28C47.9425 24.4867 48.8992 24.09 50.0659 24.09C51.1392 24.09 51.9325 24.3 52.4459 24.72C53.0059 25.0933 53.6592 25.7467 54.4059 26.68L81.2159 61.47H79.3959V28.36C79.3959 27.0067 79.7459 25.9567 80.4459 25.21C81.1925 24.4633 82.2425 24.09 83.5959 24.09C84.9492 24.09 85.9759 24.4633 86.6759 25.21C87.3759 25.9567 87.7259 27.0067 87.7259 28.36V70.36C87.7259 71.6667 87.3992 72.6933 86.7459 73.44C86.0925 74.1867 85.2059 74.56 84.0859 74.56C83.0125 74.56 82.1492 74.35 81.4959 73.93C80.8892 73.51 80.2125 72.8333 79.4659 71.9L52.7259 37.11H54.4759V70.22C54.4759 71.62 54.1259 72.6933 53.4259 73.44C52.7259 74.1867 51.6992 74.56 50.3459 74.56ZM103.129 74.56C101.682 74.56 100.539 74.1633 99.6991 73.37C98.9058 72.53 98.5091 71.34 98.5091 69.8V29.41C98.5091 27.87 98.9058 26.7033 99.6991 25.91C100.539 25.07 101.729 24.65 103.269 24.65H127.699C128.912 24.65 129.822 24.9533 130.429 25.56C131.036 26.1667 131.339 27.03 131.339 28.15C131.339 29.3167 131.036 30.2267 130.429 30.88C129.822 31.4867 128.912 31.79 127.699 31.79H107.469V45.72H126.229C127.396 45.72 128.282 46.0233 128.889 46.63C129.542 47.2367 129.869 48.1 129.869 49.22C129.869 50.3867 129.542 51.2967 128.889 51.95C128.282 52.5567 127.396 52.86 126.229 52.86H107.469V69.8C107.469 72.9733 106.022 74.56 103.129 74.56ZM142.296 74.56C140.849 74.56 139.729 74.1633 138.936 73.37C138.189 72.53 137.816 71.3867 137.816 69.94V29.2C137.816 27.7067 138.212 26.5867 139.006 25.84C139.799 25.0467 140.919 24.65 142.366 24.65H159.236C164.649 24.65 168.826 26.0033 171.766 28.71C174.706 31.4167 176.176 35.1967 176.176 40.05C176.176 44.9033 174.706 48.7067 171.766 51.46C168.826 54.1667 164.649 55.52 159.236 55.52H146.776V69.94C146.776 71.3867 146.402 72.53 145.656 73.37C144.909 74.1633 143.789 74.56 142.296 74.56ZM146.776 48.45H157.836C161.009 48.45 163.412 47.75 165.046 46.35C166.679 44.9033 167.496 42.8033 167.496 40.05C167.496 37.2967 166.679 35.22 165.046 33.82C163.412 32.42 161.009 31.72 157.836 31.72H146.776V48.45Z" fill="#BE9200"/>
</svg>
