<svg width="200" height="102" viewBox="0 0 200 102" fill="none" xmlns="http://www.w3.org/2000/svg">
<rect y="1" width="200" height="100" rx="30" fill="white"/>
<path d="M46.87 74.56C45.4233 74.56 44.3033 74.1633 43.51 73.37C42.7633 72.53 42.39 71.3867 42.39 69.94V28.71C42.39 27.2167 42.7633 26.0733 43.51 25.28C44.3033 24.4867 45.4233 24.09 46.87 24.09C48.3167 24.09 49.4133 24.4867 50.16 25.28C50.9533 26.0733 51.35 27.2167 51.35 28.71V69.94C51.35 71.3867 50.9767 72.53 50.23 73.37C49.4833 74.1633 48.3633 74.56 46.87 74.56ZM79.1559 74.7C77.1025 74.7 75.0492 74.5367 72.9959 74.21C70.9425 73.93 69.0059 73.4867 67.1859 72.88C65.3659 72.2267 63.7325 71.4333 62.2859 70.5C61.4459 69.94 60.8625 69.2633 60.5359 68.47C60.2092 67.6767 60.0925 66.9067 60.1859 66.16C60.3259 65.3667 60.6292 64.69 61.0959 64.13C61.6092 63.5233 62.2392 63.15 62.9859 63.01C63.7325 62.87 64.5492 63.08 65.4359 63.64C67.4892 64.8533 69.6592 65.74 71.9459 66.3C74.2325 66.86 76.6359 67.14 79.1559 67.14C82.8425 67.14 85.5259 66.5333 87.2059 65.32C88.8859 64.06 89.7259 62.45 89.7259 60.49C89.7259 58.8567 89.1192 57.5733 87.9059 56.64C86.7392 55.7067 84.7092 54.9367 81.8159 54.33L74.1159 52.72C69.6825 51.7867 66.3692 50.2233 64.1759 48.03C62.0292 45.79 60.9559 42.85 60.9559 39.21C60.9559 36.9233 61.4225 34.8467 62.3559 32.98C63.2892 31.1133 64.5959 29.5033 66.2759 28.15C68.0025 26.7967 70.0325 25.77 72.3659 25.07C74.7459 24.3233 77.3592 23.95 80.2059 23.95C83.0059 23.95 85.6659 24.3 88.1859 25C90.7059 25.7 92.9692 26.7267 94.9759 28.08C95.7225 28.5933 96.2125 29.2233 96.4459 29.97C96.7259 30.7167 96.7959 31.4633 96.6559 32.21C96.5159 32.91 96.1892 33.5167 95.6759 34.03C95.1625 34.5433 94.5092 34.8467 93.7159 34.94C92.9692 35.0333 92.1059 34.8 91.1259 34.24C89.3992 33.26 87.6492 32.56 85.8759 32.14C84.1025 31.72 82.1892 31.51 80.1359 31.51C77.9892 31.51 76.1459 31.8133 74.6059 32.42C73.0659 33.0267 71.8759 33.89 71.0359 35.01C70.2425 36.0833 69.8459 37.3667 69.8459 38.86C69.8459 40.54 70.4059 41.8933 71.5259 42.92C72.6459 43.9 74.5592 44.67 77.2659 45.23L84.8959 46.84C89.5159 47.82 92.9459 49.36 95.1859 51.46C97.4725 53.56 98.6159 56.36 98.6159 59.86C98.6159 62.1 98.1492 64.13 97.2159 65.95C96.3292 67.77 95.0225 69.3333 93.2959 70.64C91.6159 71.9467 89.5859 72.95 87.2059 73.65C84.8259 74.35 82.1425 74.7 79.1559 74.7ZM121.661 74.56C120.214 74.56 119.094 74.1633 118.301 73.37C117.554 72.53 117.181 71.3867 117.181 69.94V32.14H103.531C102.317 32.14 101.361 31.8133 100.661 31.16C100.007 30.46 99.6806 29.5267 99.6806 28.36C99.6806 27.1467 100.007 26.2367 100.661 25.63C101.361 24.9767 102.317 24.65 103.531 24.65H139.791C141.004 24.65 141.937 24.9767 142.591 25.63C143.291 26.2367 143.641 27.1467 143.641 28.36C143.641 29.5267 143.291 30.46 142.591 31.16C141.937 31.8133 141.004 32.14 139.791 32.14H126.141V69.94C126.141 71.3867 125.767 72.53 125.021 73.37C124.274 74.1633 123.154 74.56 121.661 74.56ZM142.554 74.49C141.247 74.5367 140.221 74.1867 139.474 73.44C138.727 72.6933 138.354 71.7367 138.354 70.57C138.354 69.6833 138.634 68.9133 139.194 68.26C139.707 67.56 140.477 67.1867 141.504 67.14L143.604 67C145.657 66.86 147.197 66.23 148.224 65.11C149.297 63.9433 149.834 62.2867 149.834 60.14V28.64C149.834 27.1467 150.207 26.0267 150.954 25.28C151.747 24.4867 152.867 24.09 154.314 24.09C155.761 24.09 156.857 24.4867 157.604 25.28C158.397 26.0267 158.794 27.1467 158.794 28.64V60.07C158.794 63.01 158.257 65.5067 157.184 67.56C156.157 69.6133 154.617 71.2233 152.564 72.39C150.511 73.51 147.967 74.1633 144.934 74.35L142.554 74.49Z" fill="#BE9200"/>
</svg>
